<svg width="296" height="168" viewBox="0 0 296 168" fill="none" xmlns="http://www.w3.org/2000/svg">
<path d="M248.754 102.241C251.77 123.732 254.787 145.222 257.81 166.706L260.167 166.784C258.662 144.886 257.067 122.556 248.76 102.241H248.754Z" fill="#E0E0E0"/>
<path d="M273.894 99.2184C267.57 106.143 265.025 115.677 263.423 124.914C261.149 138.02 260.943 153.497 261.627 166.777L264.934 166.848C263.597 143.904 266.698 121.038 273.894 99.2119V99.2184Z" fill="#E0E0E0"/>
<path d="M250.414 140.378C249.684 137.187 248.857 133.938 247.035 131.212C244.574 127.536 240.563 125.211 236.526 123.402C232.489 121.594 228.239 120.147 224.595 117.641C228.665 124.313 237.902 126.09 242.611 132.329C244.949 135.436 245.924 139.331 246.842 143.11C248.844 151.352 250.071 158.483 252.074 166.726H254.748C253.863 157.773 252.423 149.15 250.427 140.371L250.414 140.378Z" fill="#E0E0E0"/>
<path d="M267.344 166.784C267.344 166.784 269.611 141.179 271.29 136.476C272.97 131.774 288.866 118.784 288.711 119.397C288.556 120.011 276.794 134.222 275.114 137.122C273.435 140.022 270.528 166.777 270.528 166.777H267.344V166.784Z" fill="#E0E0E0"/>
<path d="M26.5764 102.241C29.593 123.732 32.6095 145.222 35.6325 166.706L37.9902 166.784C36.4851 144.886 34.8897 122.556 26.5829 102.241H26.5764Z" fill="#E0E0E0"/>
<path d="M51.7163 99.2184C45.3926 106.143 42.8476 115.677 41.2457 124.914C38.972 138.02 38.7653 153.497 39.45 166.777L42.7572 166.848C41.4201 143.904 44.5206 121.038 51.7163 99.2119V99.2184Z" fill="#E0E0E0"/>
<path d="M28.2364 140.378C27.513 137.187 26.6797 133.938 24.8581 131.212C22.3971 127.536 18.3858 125.211 14.3487 123.402C10.3116 121.594 6.06131 120.147 2.41821 117.641C6.48763 124.313 15.7246 126.09 20.4335 132.329C22.7718 135.436 23.7471 139.331 24.6644 143.11C26.6668 151.352 27.8941 158.483 29.8965 166.726H32.5707C31.6857 157.773 30.2453 149.15 28.2493 140.371L28.2364 140.378Z" fill="#E0E0E0"/>
<path d="M45.1665 166.784C45.1665 166.784 47.4338 141.179 49.1132 136.476C50.7926 131.774 66.6892 118.784 66.5342 119.397C66.3791 120.011 54.6166 134.222 52.9372 137.122C51.2577 140.022 48.351 166.777 48.351 166.777H45.1665V166.784Z" fill="#E0E0E0"/>
<path d="M129.713 141.075C130.908 141.592 131.781 142.697 132.226 143.917C132.665 145.138 132.704 146.475 132.562 147.767C132.278 150.267 130.857 152.786 129.332 154.789C127.227 152.954 126.742 149.75 126.6 148.11C126.374 145.519 127.537 140.694 129.72 141.075" fill="#8FC9E3"/>
<path d="M131.774 158.916C131.438 157.502 132.026 155.951 133.111 154.989C134.196 154.02 135.708 153.613 137.155 153.723C137.826 153.774 138.55 153.968 138.931 154.517C139.286 155.034 139.248 155.751 138.957 156.307C138.666 156.862 138.162 157.275 137.633 157.611C135.811 158.755 133.835 159.53 131.774 158.91" fill="#8FC9E3"/>
<path d="M129.074 166.577C129.074 166.577 129.093 166.39 129.151 166.067C129.216 165.705 129.3 165.24 129.403 164.678C129.636 163.515 129.933 161.855 130.837 160.247C131.729 158.638 132.969 157.456 134.022 156.868C134.545 156.565 134.997 156.39 135.32 156.294C135.482 156.242 135.611 156.222 135.695 156.197C135.779 156.177 135.824 156.171 135.83 156.177C135.843 156.216 135.101 156.352 134.093 156.972C133.079 157.579 131.877 158.748 131.005 160.331C130.12 161.907 129.804 163.547 129.539 164.704C129.41 165.285 129.307 165.757 129.229 166.079C129.151 166.402 129.093 166.583 129.087 166.577H129.074Z" fill="#343434"/>
<path d="M129.152 144.828C129.152 144.828 129.164 144.906 129.177 145.054C129.19 145.222 129.197 145.435 129.216 145.7C129.248 146.262 129.281 147.07 129.313 148.071C129.378 150.073 129.429 152.838 129.416 155.9C129.403 158.955 129.326 161.726 129.248 163.728C129.21 164.729 129.171 165.537 129.132 166.099C129.113 166.364 129.1 166.577 129.087 166.745C129.074 166.893 129.068 166.971 129.061 166.971C129.061 166.971 129.055 166.893 129.055 166.745C129.055 166.577 129.055 166.364 129.061 166.099C129.074 165.518 129.093 164.71 129.119 163.728C129.171 161.726 129.223 158.961 129.236 155.906C129.248 152.851 129.216 150.086 129.184 148.084C129.171 147.102 129.158 146.294 129.145 145.713C129.145 145.448 129.145 145.235 129.145 145.067C129.145 144.919 129.145 144.841 129.158 144.841L129.152 144.828Z" fill="#343434"/>
<path d="M128.131 160.434C127.653 157.411 125.612 154.679 122.854 153.355C122.15 153.019 121.232 152.799 120.658 153.322C120.076 153.845 120.205 154.789 120.49 155.512C121.665 158.541 124.837 160.679 128.086 160.641" fill="#8FC9E3"/>
<path d="M123.196 155.725C123.196 155.725 123.357 155.783 123.642 155.919C123.784 155.983 123.958 156.067 124.146 156.19C124.333 156.306 124.565 156.423 124.785 156.591C125.018 156.752 125.269 156.927 125.521 157.146C125.78 157.353 126.038 157.598 126.303 157.857C126.82 158.393 127.343 159.026 127.789 159.769C128.228 160.511 128.544 161.274 128.77 161.984C128.867 162.346 128.964 162.682 129.016 163.011C129.087 163.334 129.113 163.644 129.145 163.922C129.184 164.2 129.171 164.458 129.177 164.678C129.19 164.904 129.177 165.091 129.158 165.246C129.132 165.556 129.119 165.731 129.106 165.731C129.068 165.731 129.139 165.033 129.016 163.929C128.977 163.651 128.945 163.354 128.867 163.031C128.809 162.708 128.712 162.372 128.609 162.023C128.383 161.325 128.066 160.583 127.634 159.853C127.194 159.129 126.684 158.496 126.187 157.967C125.928 157.708 125.683 157.463 125.424 157.256C125.185 157.036 124.934 156.862 124.714 156.694C123.81 156.048 123.177 155.757 123.196 155.725Z" fill="#343434"/>
<path d="M97.5845 11.6289H111.511C112.299 11.6289 112.938 13.0048 112.938 14.7036C112.938 16.4024 112.299 17.7782 111.511 17.7782L97.5328 16.6672C94.7941 13.4698 97.5845 11.6289 97.5845 11.6289Z" fill="#343434"/>
<path d="M167.346 68.4458L171.958 53.0208H167.914L163.942 67.5156L167.346 68.4458Z" fill="#E0E0E0"/>
<path d="M137.052 124.52L148.155 139.15L150.765 137.916L139.099 122.653L137.052 124.52Z" fill="#343434"/>
<path d="M157.094 137.343L142.944 137.6L143.016 141.591L157.166 141.334L157.094 137.343Z" fill="#E0E0E0"/>
<path d="M82.8314 15.0264C84.5884 11.6352 97.2165 12.6752 97.2165 12.6752V15.8015C97.2165 15.8015 96.5964 15.7111 95.6339 15.6013C95.4853 16.5056 95.3691 17.4229 95.4724 18.3272C95.5952 19.3736 96.0538 20.4329 96.9258 21.0401C97.9464 21.7506 101.305 21.8863 102.539 22.0284C104.264 22.2286 105.336 22.2416 105.336 23.6562C102.074 24.4507 98.6569 23.6432 95.3949 22.8358C94.271 22.5581 93.0889 22.2545 92.2363 21.4664C91.332 20.6332 90.9379 19.3607 90.9121 18.1269C90.8927 17.158 91.0736 16.202 91.2997 15.259C88.3671 15.1492 85.4668 15.3881 84.9888 16.5767C83.5936 20.0389 100.782 28.7268 100.782 28.7268L99.445 31.8919C95.7308 30.1931 79.3756 21.6796 82.8185 15.0329L82.8314 15.0264Z" fill="#E0E0E0"/>
<path d="M86.7587 49.2612L93.3215 51.1603L92.0748 54.939L85.9578 53.3306L86.7587 49.2612Z" fill="#777777"/>
<path d="M83.0317 59.958L89.5944 61.8506L88.3478 65.6294L82.2307 64.021L83.0317 59.958Z" fill="#777777"/>
<path d="M60.7339 28.1973C60.7339 28.1973 60.8114 28.4363 60.8889 28.869C60.9729 29.3729 61.0762 29.9865 61.1989 30.7164C61.4509 32.2796 61.7674 34.437 62.1097 36.827C62.4456 39.217 62.7363 41.3809 62.9236 42.9441C63.0076 43.674 63.0786 44.3005 63.1368 44.8044C63.182 45.2436 63.1949 45.4891 63.1691 45.4955C63.1497 45.4955 63.0915 45.263 63.014 44.8237C62.9301 44.3199 62.8267 43.7063 62.704 42.9764C62.4521 41.4132 62.1291 39.2557 61.7932 36.8658C61.4573 34.4758 61.1666 32.3119 60.9793 30.7423C60.8954 30.0124 60.8243 29.3923 60.7662 28.882C60.721 28.4427 60.708 28.1973 60.7339 28.1973Z" fill="#343434"/>
<path d="M64.1832 23.9404C64.7904 26.0979 63.5308 28.3328 61.3733 28.94C59.2159 29.5472 56.9809 28.2876 56.3738 26.1302C55.7666 23.9727 57.0262 21.7378 59.1836 21.1306C61.341 20.5234 63.576 21.783 64.1832 23.9404Z" fill="#8FC9E3"/>
<g opacity="0.3">
<path d="M60.8953 29.0562C60.85 29.0562 60.8048 28.6105 60.6886 27.8999C60.5658 27.1959 60.3462 26.214 59.752 25.3097C59.1577 24.4183 58.2663 23.9016 57.5945 23.7401C56.9098 23.5721 56.4577 23.6949 56.4512 23.6367C56.4383 23.6109 56.884 23.3977 57.6397 23.5205C58.3826 23.6367 59.3708 24.1664 60.0168 25.1353C60.6563 26.1042 60.8436 27.1442 60.9146 27.8676C60.9792 28.5976 60.9405 29.0497 60.9017 29.0562H60.8953Z" fill="black"/>
</g>
<g opacity="0.3">
<path d="M63.5179 22.7777C63.5438 22.8681 62.4134 23.0231 61.4638 23.9404C60.5143 24.8511 60.3205 25.9815 60.2301 25.9492C60.1913 25.9492 60.1849 25.6586 60.3141 25.2193C60.4433 24.7866 60.7404 24.1987 61.2442 23.7078C61.7545 23.2169 62.3423 22.9392 62.7816 22.8294C63.2208 22.7131 63.5115 22.7325 63.5115 22.7712L63.5179 22.7777Z" fill="black"/>
</g>
<g opacity="0.3">
<path d="M61.7997 23.4496C61.7545 23.469 61.6447 23.2106 61.3281 22.9264C61.0246 22.6422 60.4755 22.3515 59.8489 22.4161C59.2288 22.4872 58.7508 22.9006 58.5183 23.2429C58.2729 23.5917 58.2276 23.863 58.176 23.8566C58.1437 23.8566 58.1114 23.553 58.331 23.1266C58.5377 22.7132 59.0609 22.1965 59.8166 22.1061C60.5724 22.0285 61.199 22.4226 61.4896 22.7778C61.7997 23.146 61.832 23.4496 61.7997 23.4561V23.4496Z" fill="black"/>
</g>
<g opacity="0.3">
<path d="M60.8501 24.4248C60.7597 24.4506 60.5594 23.9274 60.1202 23.43C59.6874 22.9262 59.1965 22.6549 59.2288 22.5709C59.2482 22.4934 59.8618 22.6549 60.3527 23.2233C60.8501 23.7853 60.9276 24.4183 60.8501 24.4248Z" fill="black"/>
</g>
<g opacity="0.3">
<path d="M60.2301 23.3203C60.2689 23.4043 59.9717 23.5852 59.7521 23.8952C59.539 24.2117 59.3968 24.5476 59.3064 24.5218C59.2354 24.5024 59.2289 24.1278 59.4937 23.7144C59.7909 23.301 60.2107 23.2428 60.2301 23.3203Z" fill="black"/>
</g>
<path d="M66.3729 15.679C66.3729 15.679 66.4181 16.0601 66.4504 16.7448C66.4762 17.4811 66.5085 18.463 66.5473 19.6579C66.6118 22.1125 66.6829 25.5101 66.741 29.2631C66.7992 33.016 66.8315 36.4072 66.8379 38.8682C66.8379 40.0567 66.8379 41.0385 66.8379 41.7814C66.8315 42.4661 66.8121 42.8472 66.7927 42.8472C66.7733 42.8472 66.7475 42.4661 66.7152 41.7814C66.6894 41.045 66.6571 40.0632 66.6183 38.8682C66.5537 36.4136 66.4827 33.016 66.4245 29.2631C66.3664 25.5101 66.3341 22.119 66.3276 19.6579C66.3276 18.4694 66.3276 17.4876 66.3276 16.7448C66.3341 16.0601 66.3535 15.679 66.3729 15.679Z" fill="#343434"/>
<path d="M71.1528 13.6313C71.3595 16.2409 69.4152 18.521 66.8056 18.7277C64.196 18.9344 61.9159 16.9902 61.7092 14.3806C61.5025 11.771 63.4467 9.49081 66.0563 9.28411C68.6659 9.07741 70.9461 11.0217 71.1528 13.6313Z" fill="#8FC9E3"/>
<g opacity="0.3">
<path d="M66.2373 18.7536C66.192 18.7472 66.2502 18.224 66.276 17.3842C66.2954 16.551 66.276 15.3689 65.7916 14.1933C65.3071 13.0306 64.3963 12.2361 63.6535 11.9002C62.8978 11.5514 62.3552 11.6031 62.3616 11.5385C62.3616 11.5191 62.4908 11.4868 62.7363 11.4868C62.9817 11.4868 63.337 11.5385 63.7439 11.6935C64.5643 11.9906 65.5655 12.8239 66.0887 14.0706C66.599 15.3172 66.5861 16.551 66.5021 17.3907C66.4181 18.2433 66.276 18.7536 66.2373 18.7472V18.7536Z" fill="black"/>
</g>
<g opacity="0.3">
<path d="M70.6553 12.152C70.6682 12.2489 69.3247 12.152 68.0264 13.0047C66.7216 13.8444 66.2565 15.104 66.1725 15.0523C66.1338 15.0394 66.1983 14.7164 66.4503 14.2449C66.6957 13.7798 67.1673 13.1855 67.8584 12.7398C68.5496 12.2941 69.2859 12.1133 69.8092 12.0745C70.3388 12.0358 70.6618 12.1133 70.6553 12.152Z" fill="black"/>
</g>
<g opacity="0.3">
<path d="M68.5367 12.5331C68.485 12.546 68.4269 12.223 68.1297 11.8161C67.852 11.4156 67.2771 10.9441 66.5343 10.8795C65.7914 10.8213 65.152 11.196 64.8096 11.5383C64.4543 11.8871 64.3381 12.1972 64.2929 12.1778C64.2606 12.1778 64.2929 11.8161 64.6481 11.3898C64.9776 10.9699 65.6881 10.4984 66.5666 10.5694C67.4386 10.6469 68.0651 11.2283 68.3235 11.6998C68.5948 12.1843 68.5754 12.5395 68.5431 12.5395L68.5367 12.5331Z" fill="black"/>
</g>
<g opacity="0.3">
<path d="M67.2321 13.4376C67.1416 13.444 67.0383 12.7981 66.6378 12.1199C66.2502 11.4352 65.7335 11.0218 65.7916 10.9443C65.8304 10.8732 66.4828 11.2026 66.9155 11.9584C67.3548 12.7141 67.316 13.444 67.2321 13.4376Z" fill="black"/>
</g>
<g opacity="0.3">
<path d="M66.7669 12.0293C66.7863 12.1197 66.3987 12.2489 66.0758 12.5654C65.7528 12.8884 65.5267 13.2501 65.4427 13.1984C65.3781 13.1661 65.4621 12.7398 65.8561 12.3393C66.276 11.9388 66.7669 11.9582 66.7669 12.0357V12.0293Z" fill="black"/>
</g>
<path d="M52.0522 27.1637C52.1104 27.1443 53.0211 29.8314 54.0934 33.1645C55.1592 36.4975 55.9795 39.2169 55.9214 39.2363C55.8633 39.2557 54.9525 36.5686 53.8802 33.2291C52.8144 29.896 51.9941 27.1766 52.0522 27.1572V27.1637Z" fill="#E0E0E0"/>
<path d="M54.1775 33.7976C54.1388 33.8363 53.2086 33.1 52.0395 32.2021C50.8768 31.3042 49.9596 30.5291 50.0048 30.4774C50.0435 30.4322 51.0124 31.1234 52.1751 32.0277C53.3443 32.9255 54.2228 33.7459 54.1775 33.7976Z" fill="#E0E0E0"/>
<path d="M49.4816 30.2062C49.3007 30.3677 49.3653 30.7359 49.572 30.9426C49.7787 31.1493 50.2438 31.046 50.3988 30.807C50.5538 30.568 50.444 30.2062 50.1921 30.0706C49.9402 29.9349 49.5914 30.0318 49.4364 30.2708" fill="#E0E0E0"/>
<path d="M54.1774 25.8524C54.242 25.8653 54.0417 26.8213 53.6477 27.9453C53.2537 29.0692 53.0082 29.9929 52.9566 29.98C52.892 29.9671 53.047 28.9982 53.441 27.8742C53.835 26.7503 54.1257 25.8395 54.1774 25.8524Z" fill="#E0E0E0"/>
<path d="M54.0741 25.0257C53.8545 25.1807 53.8416 25.2776 53.7576 25.536C53.6736 25.7944 53.7964 26.1367 54.0612 26.1884C54.3066 26.2401 54.5392 26.0269 54.6425 25.7944C54.7394 25.5812 54.7653 25.3228 54.6425 25.1291C54.5134 24.9353 54.1904 24.8771 54.0483 25.0645" fill="#E0E0E0"/>
<path d="M50.2695 32.9707C50.2501 32.9126 50.6377 32.693 51.148 32.4798C51.6518 32.2666 52.0846 32.1375 52.1104 32.1956C52.1363 32.2537 51.7422 32.4669 51.2319 32.6865C50.7217 32.8997 50.2953 33.0288 50.2695 32.9707Z" fill="#E0E0E0"/>
<path d="M49.475 32.6027C49.32 32.6802 49.2618 33.0484 49.2683 33.2034C49.2748 33.3584 49.3717 33.5005 49.5008 33.5845C49.7398 33.7395 50.0951 33.6814 50.276 33.4618C50.4568 33.2421 50.4504 32.8869 50.2566 32.6802C50.0628 32.4735 49.7075 32.4347 49.475 32.6027Z" fill="#E0E0E0"/>
<path d="M51.0704 26.5437C50.9929 26.886 51.1737 27.2607 51.4838 27.4221C51.7938 27.5772 52.2072 27.4997 52.4333 27.2413C52.5431 27.1186 52.6077 26.9506 52.5883 26.7891C52.5431 26.4984 52.1685 26.1561 51.8778 26.1367C51.4515 26.1044 51.206 26.324 51.0769 26.5501" fill="#E0E0E0"/>
<path d="M80.1896 39.5334C80.2154 39.5786 79.6599 39.9597 78.7944 40.6185C77.9288 41.2774 76.7661 42.2269 75.5776 43.3896C74.3955 44.5523 73.4201 45.7021 72.7484 46.5547C72.0766 47.4074 71.6826 47.9629 71.6438 47.9306C71.6115 47.9112 71.9345 47.3105 72.5675 46.4126C73.2005 45.5148 74.1565 44.3327 75.3515 43.1506C76.5465 41.975 77.7479 41.0384 78.6587 40.4248C79.5695 39.8111 80.1702 39.4946 80.1896 39.5269V39.5334Z" fill="#E0E0E0"/>
<path d="M79.0462 34.8373C79.1302 34.8567 78.8331 36.3747 78.3809 38.2285C77.9288 40.0824 77.4895 41.5616 77.4056 41.5357C77.3216 41.5099 77.6187 39.9919 78.0709 38.1446C78.523 36.2972 78.9623 34.818 79.0462 34.8373Z" fill="#E0E0E0"/>
<path d="M78.5489 34.5855C78.3229 34.6888 78.2583 35.2379 78.4456 35.5027C78.6329 35.7676 79.0399 35.8128 79.3241 35.6578C79.66 35.4704 79.8214 34.9924 79.6147 34.6695C79.408 34.3465 78.7944 34.2754 78.5231 34.6049" fill="#E0E0E0"/>
<path d="M80.9259 36.717C80.9647 36.801 80.4156 37.1239 79.7116 37.4469C79.001 37.7699 78.4003 37.9637 78.3616 37.8861C78.3228 37.8022 78.8718 37.4792 79.5759 37.1562C80.2864 36.8333 80.8872 36.6395 80.9259 36.717Z" fill="#E0E0E0"/>
<path d="M80.8743 36.1873C80.687 36.3294 80.5061 36.5038 80.4415 36.7364C80.3769 36.9624 80.4738 37.2467 80.6999 37.3242C80.842 37.3758 81.0099 37.3242 81.1262 37.2337C81.2425 37.1369 81.32 37.0012 81.3717 36.8526C81.4298 36.6976 81.4556 36.5232 81.3975 36.3682C81.3394 36.2132 81.1585 36.1033 81.0035 36.155" fill="#E0E0E0"/>
<path d="M80.8615 38.9134C80.5191 38.9005 80.2026 39.217 80.2091 39.5593C80.2155 39.9017 80.5514 40.1988 80.8938 40.1665C81.2361 40.1342 81.5139 39.7854 81.4622 39.4495C81.4105 39.1136 81.0488 38.8553 80.7129 38.9199" fill="#E0E0E0"/>
<path d="M78.0256 32.2795C78.0579 32.3247 77.7672 33.4292 77.2763 35.212C76.7079 37.2661 76.0619 39.5786 75.3514 42.13C74.6344 44.675 73.982 46.981 73.4007 49.0287C72.8968 50.7856 72.5803 51.8708 72.5416 51.832C72.4576 51.761 73.5686 47.2394 75.0866 41.8394C76.5981 36.4264 77.9481 32.1826 78.0256 32.2795Z" fill="#343434"/>
<path d="M83.2255 29.8379C82.7604 32.0276 80.6094 33.4293 78.4132 32.9642C76.2235 32.4992 74.8218 30.3482 75.2869 28.152C75.7519 25.9622 77.9029 24.5606 80.0991 25.0256C82.2888 25.4907 83.6905 27.6417 83.2255 29.8379Z" fill="#8FC9E3"/>
<g opacity="0.3">
<path d="M77.9416 32.8416C77.8963 32.8222 78.0707 32.4023 78.2904 31.7176C78.5035 31.0394 78.7684 30.064 78.6585 28.9918C78.5423 27.926 77.9997 27.054 77.4765 26.6018C76.9468 26.1303 76.4947 26.0334 76.514 25.9817C76.514 25.9559 77.0114 25.9752 77.6186 26.4339C78.2258 26.8796 78.8523 27.8097 78.9751 28.9659C79.0913 30.1157 78.7748 31.1298 78.4971 31.8016C78.2128 32.4798 77.9674 32.8609 77.9351 32.848L77.9416 32.8416Z" fill="black"/>
</g>
<g opacity="0.3">
<path d="M83.1739 28.5007C83.1545 28.5912 82.0822 28.2036 80.8162 28.5782C79.5502 28.9464 78.8525 29.8572 78.788 29.7861C78.7557 29.7668 78.8784 29.5084 79.2014 29.179C79.5179 28.856 80.0475 28.4749 80.7258 28.2746C81.404 28.0744 82.0564 28.1067 82.4956 28.2101C82.9413 28.3134 83.1868 28.462 83.1674 28.4943L83.1739 28.5007Z" fill="black"/>
</g>
<g opacity="0.3">
<path d="M81.3393 28.294C81.2876 28.294 81.3134 28.0098 81.1649 27.6093C81.0292 27.2218 80.674 26.6985 80.0926 26.4725C79.5048 26.2464 78.8976 26.3885 78.5294 26.5887C78.1548 26.7825 77.9804 27.0021 77.9416 26.9698C77.9093 26.9569 78.0256 26.6662 78.4196 26.3949C78.7943 26.1237 79.4983 25.9105 80.2089 26.1818C80.913 26.466 81.2876 27.099 81.378 27.5512C81.4814 28.0163 81.3716 28.3069 81.3393 28.294Z" fill="black"/>
</g>
<g opacity="0.3">
<path d="M80.0475 28.7269C79.957 28.7075 80.0216 28.152 79.8601 27.5061C79.7116 26.8537 79.4015 26.3886 79.4726 26.3305C79.5307 26.2723 79.9958 26.6987 80.1702 27.4286C80.3511 28.1585 80.125 28.7527 80.0475 28.7269Z" fill="black"/>
</g>
<g opacity="0.3">
<path d="M80.015 27.4543C80.015 27.5512 79.6598 27.5641 79.3239 27.745C78.988 27.9259 78.7038 28.1584 78.6392 28.0938C78.5875 28.0421 78.749 27.7062 79.1753 27.4672C79.6275 27.2412 80.028 27.3833 80.0086 27.4608L80.015 27.4543Z" fill="black"/>
</g>
<path d="M72.4192 22.991C72.4192 22.991 72.4192 23.0233 72.3998 23.0879C72.3804 23.1654 72.3481 23.2558 72.3158 23.3656C72.2319 23.624 72.122 23.9793 71.9864 24.4314C71.8378 24.89 71.657 25.4584 71.4761 26.1238C71.2888 26.7891 71.0562 27.5319 70.8495 28.3781C70.6299 29.2178 70.3909 30.135 70.1713 31.1298C69.9259 32.1181 69.7256 33.1903 69.4995 34.3143C69.0797 36.5686 68.6986 39.0555 68.4273 41.6844C68.1689 44.3134 68.0526 46.8326 68.0203 49.1257C68.0203 50.269 68.0074 51.3606 68.0526 52.3747C68.072 53.3953 68.1237 54.3384 68.1754 55.204C68.2141 56.0695 68.2916 56.8511 68.3498 57.5358C68.4014 58.2205 68.466 58.8148 68.5177 59.2927C68.5694 59.7643 68.6017 60.1325 68.634 60.4038C68.6469 60.52 68.6534 60.6169 68.6598 60.6944C68.6598 60.759 68.6598 60.7913 68.6598 60.7913C68.6598 60.7913 68.6469 60.759 68.6404 60.6944C68.6275 60.6169 68.6146 60.5265 68.5952 60.4102C68.5565 60.1389 68.5048 59.7707 68.4402 59.3057C68.3756 58.8277 68.2981 58.2334 68.2335 57.5487C68.1689 56.864 68.0785 56.0824 68.0333 55.2169C67.9751 54.3513 67.9105 53.4018 67.8847 52.3812C67.833 51.3606 67.8395 50.269 67.833 49.1192C67.8588 46.8261 67.9687 44.3005 68.227 41.6586C68.4983 39.0232 68.8859 36.5298 69.3122 34.2691C69.5447 33.1451 69.7579 32.0729 70.0034 31.0846C70.2294 30.0898 70.4814 29.1726 70.7074 28.3329C70.9271 27.4932 71.1661 26.7439 71.3663 26.085C71.5601 25.4262 71.7539 24.8642 71.9153 24.4056C72.0704 23.9599 72.1931 23.6046 72.2835 23.3527C72.3223 23.2429 72.3546 23.1525 72.3869 23.0814C72.4127 23.0233 72.4256 22.991 72.4256 22.991H72.4192Z" fill="#343434"/>
<path d="M69.2669 35.2251C69.7385 33.8169 70.7139 32.5767 71.9799 31.7951C72.4127 31.5303 72.9553 31.3107 73.4139 31.5303C74.0211 31.8274 74.0727 32.6801 73.8919 33.3325C73.5883 34.4306 72.8713 35.4059 71.9153 36.026C70.9593 36.6461 70.0744 36.9368 68.9504 36.7753" fill="#343434"/>
<path d="M68.2076 43.4803C68.6597 41.775 70.0162 39.3527 71.4308 38.2934C71.6569 38.1254 71.8959 37.9704 72.1607 37.9058C72.432 37.8412 72.7421 37.88 72.9423 38.0738C73.233 38.3515 73.2007 38.8166 73.1167 39.2041C72.5741 41.691 70.5071 43.7774 68.0203 44.3329" fill="#343434"/>
<path d="M67.9167 50.7534C68.6144 49.132 69.7448 47.7045 71.1658 46.6646C71.5017 46.4191 71.8957 46.1866 72.3027 46.2576C72.9228 46.3674 73.2005 47.1232 73.1424 47.7497C73.0326 49.0352 72.0508 50.0687 71.0366 50.8632C69.945 51.7223 68.0266 52.407 68.0266 52.407" fill="#343434"/>
<path d="M68.0784 55.9792C68.7954 54.7648 69.6803 53.6215 70.843 52.827C71.0949 52.6526 71.3727 52.4976 71.6763 52.4523C71.9798 52.4136 72.3157 52.5105 72.4901 52.7624C72.7679 53.1693 72.5031 53.7184 72.2059 54.1124C71.1789 55.4689 69.8805 56.4959 68.2592 57.0062" fill="#343434"/>
<path d="M67.9426 53.8539C66.7476 52.394 65.4234 51.044 63.983 49.8232C63.7569 49.6359 63.4727 49.4356 63.1949 49.5261C62.9753 49.5971 62.8461 49.8297 62.8332 50.0557C62.8203 50.2818 62.8978 50.5079 62.9818 50.7146C63.8473 52.8074 65.882 54.4417 68.0782 55.0036" fill="#343434"/>
<path d="M68.0654 47.0588C67.0319 45.7927 65.992 44.5331 64.9585 43.2671C64.6613 42.9054 64.3577 42.5372 63.9508 42.3111C63.5439 42.085 63.0077 42.0269 62.6266 42.2982C62.2455 42.563 62.1163 43.0927 62.2003 43.5513C62.2843 44.0099 62.5426 44.4169 62.8075 44.798C63.4405 45.7087 64.1575 46.5743 65.0747 47.2073C65.9855 47.8339 66.8188 48.2408 67.9104 48.0793" fill="#343434"/>
<path d="M68.4983 39.3978C67.8976 37.5956 66.8059 35.9549 65.372 34.7018C65.133 34.4951 64.8681 34.2884 64.5581 34.2238C63.938 34.1011 63.3308 34.6243 63.1305 35.225C62.9045 35.9033 63.0595 36.6655 63.4148 37.2856C63.77 37.9057 64.3062 38.3966 64.8746 38.8294C65.921 39.6303 67.0902 40.2633 68.3304 40.6961" fill="#343434"/>
<path d="M69.7384 32.5702C69.4348 30.374 68.2915 28.546 66.9673 26.7697C66.6896 26.3951 66.2955 25.9946 65.8369 26.0656C65.5398 26.1108 65.3072 26.3498 65.191 26.6211C65.0747 26.8924 65.0618 27.2025 65.0682 27.4996C65.1393 30.1544 66.9673 32.6736 69.4736 33.565" fill="#343434"/>
<path d="M70.6105 29.0822C70.5007 27.9518 70.3909 26.8149 70.4942 25.6845C70.5976 24.5541 70.927 23.4173 71.6246 22.5194C71.9218 22.1319 72.2964 21.7895 72.755 21.6216C73.2136 21.4536 73.7627 21.4924 74.1373 21.8024C74.4861 22.0931 74.6283 22.5711 74.6089 23.0233C74.5895 23.4754 74.4345 23.9082 74.2601 24.3216C73.4333 26.3111 72.051 28.5202 70.6105 29.0757" fill="#343434"/>
<path d="M56.3287 31.7433C56.3287 31.7433 56.3416 31.8466 56.3481 32.0468C56.3481 32.2729 56.3481 32.5636 56.361 32.9253C56.361 33.3064 56.361 33.7715 56.3804 34.3076C56.3998 34.8502 56.3998 35.4639 56.445 36.1421C56.5031 37.4986 56.6388 39.1134 56.839 40.8962C57.0586 42.679 57.3622 44.6297 57.7821 46.658C58.2149 48.6862 58.7187 50.5982 59.2354 52.3164C59.7651 54.0346 60.2948 55.5655 60.7857 56.8315C61.0182 57.471 61.2637 58.033 61.4639 58.5368C61.6642 59.0407 61.845 59.467 62.0001 59.8158C62.1422 60.1517 62.2584 60.4165 62.3424 60.6232C62.4199 60.8105 62.4522 60.9074 62.4458 60.9139C62.4393 60.9139 62.3876 60.8234 62.2972 60.6426C62.2003 60.4423 62.0711 60.1775 61.9161 59.8545C61.7481 59.5122 61.5544 59.0923 61.3412 58.5885C61.128 58.0911 60.8761 57.5292 60.6307 56.8897C60.1204 55.6236 59.5713 54.0992 59.0352 52.3746C58.5055 50.6499 57.9952 48.7379 57.5625 46.6968C57.1426 44.662 56.839 42.6984 56.6323 40.9091C56.4385 39.1199 56.3223 37.4986 56.2835 36.1356C56.2512 35.4574 56.2577 34.8373 56.2512 34.2947C56.2447 33.7521 56.2512 33.2871 56.2706 32.9059C56.2835 32.5442 56.2964 32.2535 56.3029 32.0275C56.3158 31.8272 56.3223 31.7239 56.3287 31.7239V31.7433Z" fill="#343434"/>
<path d="M56.8647 41.6392C56.8841 40.47 57.3234 39.3138 58.0856 38.4289C58.3439 38.1253 58.7057 37.8346 59.0997 37.8927C59.6229 37.9702 59.8619 38.5968 59.8813 39.1265C59.9136 40.0179 59.61 40.9222 59.0416 41.6069C58.4731 42.298 57.8789 42.7244 57.0004 42.8665" fill="#343434"/>
<path d="M58.0211 48.0662C57.9565 46.6839 58.4022 44.5523 59.2096 43.4284C59.3388 43.2475 59.4809 43.0731 59.6682 42.9633C59.8555 42.8535 60.101 42.8083 60.2948 42.9052C60.579 43.0408 60.663 43.3961 60.6953 43.7126C60.8826 45.7021 59.8232 47.7497 58.0986 48.7574" fill="#343434"/>
<path d="M59.5195 53.5762C59.6552 52.2003 60.1655 50.8632 60.9858 49.7457C61.1796 49.4809 61.4186 49.2161 61.7416 49.1773C62.2325 49.1127 62.62 49.6101 62.7234 50.0945C62.943 51.0828 62.4521 52.084 61.8837 52.9238C61.27 53.8281 59.9975 54.7905 59.9975 54.7905" fill="#343434"/>
<path d="M60.8826 57.4516C61.128 56.3729 61.522 55.3071 62.2067 54.4416C62.3553 54.2542 62.5233 54.0669 62.7429 53.97C62.9625 53.8667 63.2338 53.8602 63.4276 54.0088C63.7312 54.2478 63.6666 54.7258 63.5374 55.0875C63.0917 56.3471 62.3618 57.4193 61.2701 58.188" fill="#343434"/>
<path d="M60.2754 55.8951C59.0352 55.0812 57.724 54.39 56.361 53.8151C56.1479 53.7247 55.8895 53.6472 55.7022 53.7764C55.5536 53.8797 55.5149 54.0864 55.5536 54.2608C55.5988 54.4352 55.7086 54.5838 55.8249 54.7194C56.9682 56.0759 58.8802 56.8188 60.6501 56.7219" fill="#343434"/>
<path d="M58.7638 50.7728C57.6915 50.0752 56.6128 49.3711 55.5405 48.6735C55.2369 48.4732 54.9204 48.273 54.5587 48.1955C54.2034 48.1244 53.7836 48.2084 53.564 48.4991C53.3443 48.7897 53.3702 49.2161 53.5446 49.5326C53.7125 49.8555 54.0032 50.0945 54.2939 50.3206C54.9786 50.8503 55.7278 51.3283 56.5546 51.5866C57.3879 51.8386 58.1049 51.9484 58.8865 51.5673" fill="#343434"/>
<path d="M57.2782 44.9465C56.3998 43.7386 55.1983 42.7697 53.8289 42.1754C53.6028 42.0785 53.3574 41.9816 53.1055 42.0139C52.6081 42.072 52.2851 42.6017 52.2787 43.0991C52.2722 43.661 52.5629 44.1907 52.9763 44.5718C53.3897 44.9529 53.9064 45.1919 54.4361 45.3792C55.405 45.728 56.4321 45.9283 57.4656 45.9606" fill="#343434"/>
<path d="M56.587 39.5398C55.8442 37.9702 54.5523 36.8721 53.1441 35.8515C52.847 35.6383 52.4594 35.4316 52.13 35.5931C51.9233 35.6965 51.8006 35.929 51.7748 36.1616C51.7554 36.3941 51.8135 36.6266 51.891 36.8463C52.5693 38.8164 54.5394 40.2697 56.6193 40.3408" fill="#343434"/>
<path d="M56.4125 36.73C56.0637 35.9097 55.7149 35.0829 55.5211 34.2173C55.3338 33.3453 55.3144 32.4216 55.618 31.5819C55.7472 31.2201 55.9474 30.8778 56.251 30.6388C56.5546 30.3998 56.9744 30.3029 57.3297 30.4515C57.6591 30.5871 57.8788 30.9101 57.9757 31.2524C58.0725 31.5948 58.0532 31.9565 58.0209 32.3118C57.8723 33.9977 57.362 35.9743 56.4125 36.7365" fill="#343434"/>
<path d="M83.9748 35.9226C83.9748 35.9226 83.9748 36.0195 83.949 36.2068C83.9167 36.4135 83.8844 36.6784 83.8327 37.0078C83.7811 37.3566 83.7165 37.7829 83.6196 38.2738C83.5227 38.7647 83.4323 39.3267 83.2837 39.9404C83.0253 41.1741 82.6507 42.6275 82.1791 44.2229C81.6947 45.8184 81.094 47.5495 80.377 49.3323C79.647 51.1151 78.8655 52.7687 78.0968 54.2479C77.3217 55.7207 76.5724 57.0255 75.9006 58.0848C75.5776 58.6274 75.2482 59.0925 74.9769 59.5123C74.7056 59.9322 74.4537 60.281 74.247 60.5652C74.0467 60.8365 73.8917 61.0561 73.769 61.2176C73.6592 61.3662 73.5946 61.4437 73.5881 61.4372C73.5881 61.4372 73.6334 61.3468 73.7302 61.1918C73.8465 61.0174 73.9886 60.7977 74.1759 60.5135C74.3762 60.2228 74.6087 59.8676 74.8736 59.4413C75.1384 59.0214 75.4549 58.5434 75.7714 58.0008C76.4303 56.9286 77.1602 55.6238 77.9224 54.151C78.6717 52.6718 79.4533 51.0182 80.1767 49.2419C80.8937 47.4655 81.4944 45.7409 81.9918 44.1583C82.4763 42.5693 82.8574 41.1224 83.1416 39.9016C83.2966 39.2944 83.4 38.7324 83.5033 38.248C83.6131 37.7635 83.6906 37.3372 83.7488 36.9949C83.8134 36.6654 83.865 36.4006 83.9038 36.2004C83.9425 36.0195 83.9619 35.9226 83.9684 35.9226H83.9748Z" fill="#343434"/>
<path d="M81.8497 44.8366C82.0241 43.7708 81.8174 42.6469 81.2683 41.7167C81.081 41.4002 80.8032 41.0773 80.4351 41.0579C79.9441 41.0385 79.6212 41.5746 79.5178 42.0526C79.3434 42.86 79.4726 43.7256 79.8731 44.4491C80.2736 45.1725 80.7451 45.657 81.5202 45.9347" fill="#343434"/>
<path d="M79.7311 50.4886C80.0218 49.2419 79.9701 47.2266 79.421 46.0704C79.3371 45.8895 79.2337 45.7086 79.0852 45.573C78.9366 45.4373 78.717 45.3598 78.5232 45.418C78.2454 45.4955 78.1033 45.8055 78.0258 46.0833C77.5284 47.8596 78.1485 49.9008 79.5567 51.0958" fill="#343434"/>
<path d="M77.4573 55.2558C77.5607 53.9833 77.3152 52.6785 76.7597 51.5287C76.6305 51.2574 76.4561 50.9732 76.1719 50.8828C75.7391 50.7471 75.3064 51.1347 75.1255 51.5546C74.7638 52.4201 75.0415 53.4084 75.4226 54.2675C75.8296 55.1912 76.8308 56.2764 76.8308 56.2764" fill="#343434"/>
<path d="M75.5841 58.55C75.5389 57.5294 75.358 56.4959 74.88 55.5916C74.7767 55.3978 74.654 55.2041 74.4731 55.0749C74.2922 54.9457 74.0403 54.894 73.8465 54.9974C73.53 55.1653 73.5106 55.6045 73.5688 55.9598C73.769 57.1806 74.247 58.2787 75.119 59.1572" fill="#343434"/>
<path d="M76.3914 57.2322C77.651 56.7026 78.9558 56.2827 80.2929 55.9856C80.4996 55.9404 80.7515 55.9081 80.9001 56.0631C81.0164 56.1793 81.0228 56.3731 80.9518 56.5282C80.8872 56.6767 80.758 56.793 80.6288 56.9028C79.3692 57.9492 77.5025 58.3109 75.907 57.9234" fill="#343434"/>
<path d="M78.6135 52.827C79.7051 52.3684 80.7968 51.9098 81.8884 51.4512C82.1985 51.322 82.5214 51.1864 82.8573 51.1799C83.1932 51.1734 83.5614 51.3155 83.71 51.6191C83.865 51.9227 83.7681 52.2974 83.5614 52.5687C83.3547 52.8335 83.0511 53.0079 82.7475 53.1629C82.037 53.5311 81.2748 53.8476 80.4803 53.9381C79.6793 54.0285 79.014 54.0091 78.3616 53.5376" fill="#343434"/>
<path d="M80.9325 47.7757C81.9337 46.8197 83.1868 46.1415 84.5303 45.825C84.7564 45.7733 84.9954 45.7281 85.215 45.7991C85.6543 45.9348 85.8674 46.4709 85.7899 46.9231C85.7059 47.4334 85.3507 47.8726 84.9114 48.1439C84.4722 48.4216 83.9619 48.5508 83.4516 48.6413C82.5085 48.8027 81.5461 48.8092 80.603 48.6671" fill="#343434"/>
<path d="M82.4441 42.9765C83.3807 41.6717 84.7307 40.8836 86.1841 40.1925C86.4876 40.0439 86.8752 39.9212 87.1465 40.1279C87.3209 40.2571 87.392 40.4896 87.3726 40.7028C87.3532 40.9159 87.2628 41.1162 87.153 41.31C86.2099 42.9894 84.1816 43.9842 82.2761 43.7064" fill="#343434"/>
<path d="M83.0705 40.4443C83.5226 39.7596 83.9812 39.062 84.2913 38.3062C84.6078 37.544 84.7822 36.7043 84.6401 35.8969C84.582 35.5481 84.4592 35.1993 84.2202 34.9344C83.9812 34.6696 83.6131 34.5081 83.2707 34.5856C82.9477 34.6567 82.6958 34.9086 82.5537 35.2057C82.4116 35.5029 82.3664 35.8323 82.3406 36.1617C82.1985 37.7184 82.3406 39.6046 83.0705 40.4508" fill="#343434"/>
<path d="M88.8774 44.4102L88.5415 44.3844L49.4816 41.4648C48.9971 41.426 48.5772 41.7877 48.5385 42.2722C48.4997 42.7566 48.8615 43.1765 49.3459 43.2153L50.4053 43.2928L51.8263 63.2006L83.0575 65.9136L88.4059 46.1414L89.8721 46.2705C90.3631 46.3158 90.7894 45.9476 90.8281 45.4631C90.8669 44.9851 90.5116 44.5653 90.0336 44.5265L88.8709 44.4167L88.8774 44.4102ZM58.5376 60.6104L54.7201 60.2874L54.2357 52.5943L58.5376 52.9173V60.6104ZM58.5376 51.1603L54.1259 50.8309L53.6672 43.5382L58.5376 43.9V51.1538V51.1603ZM66.7734 61.308L62.2647 60.9269V53.2015L67.3482 53.5826L66.7734 61.308ZM67.4839 51.8321L62.2647 51.4445V44.1906L68.02 44.6234L67.4774 51.8385L67.4839 51.8321ZM75.4935 62.0379L70.4875 61.6181L71.0688 53.8603L76.5593 54.2737L75.4935 62.0444V62.0379ZM76.7983 52.5297L71.198 52.1098L71.7406 44.8947L77.7866 45.3469L76.8048 52.5297H76.7983ZM81.152 62.5159L79.2141 62.3544L80.2864 54.5515L82.98 54.7517L81.1584 62.5159H81.152ZM83.3804 53.0206L80.5254 52.8075L81.5072 45.6246L85.0534 45.8894L83.3804 53.0206Z" fill="#777777"/>
<path d="M89.5944 46.2447C89.588 46.3351 80.7257 45.7602 69.7964 44.9593C58.8671 44.1583 50.0177 43.4284 50.0242 43.338C50.0306 43.2475 58.8929 43.8224 69.8222 44.6234C80.745 45.4244 89.6009 46.1543 89.5944 46.2447Z" fill="#343434"/>
<path d="M212.471 120.676C212.387 120.651 214.939 111.84 218.168 100.995C221.398 90.1428 224.085 81.3709 224.169 81.3968C224.253 81.4226 221.702 90.2332 218.472 101.085C215.242 111.93 212.555 120.702 212.471 120.683V120.676Z" fill="#343434"/>
<path d="M212.471 120.676C212.387 120.663 213.46 111.549 214.868 100.323C216.276 89.09 217.49 79.9952 217.574 80.0081C217.658 80.021 216.586 89.1287 215.178 100.362C213.77 111.588 212.555 120.683 212.471 120.676Z" fill="#343434"/>
<path d="M212.471 120.676C212.387 120.676 211.825 111.523 211.225 100.219C210.624 88.9155 210.204 79.7496 210.288 79.7432C210.372 79.7432 210.934 88.8961 211.535 100.2C212.135 111.498 212.555 120.67 212.471 120.67V120.676Z" fill="#343434"/>
<path d="M212.471 120.676C212.387 120.696 210.301 111.756 207.821 100.717C205.334 89.6713 203.389 80.7057 203.473 80.6863C203.557 80.6669 205.637 89.6003 208.124 100.646C210.611 111.685 212.555 120.651 212.471 120.67V120.676Z" fill="#343434"/>
<path d="M212.471 120.676C212.394 120.709 208.841 112.247 204.546 101.776C200.25 91.3054 196.827 82.7919 196.911 82.7596C196.995 82.7273 200.541 91.1891 204.836 101.66C209.132 112.13 212.549 120.644 212.471 120.676Z" fill="#343434"/>
<path d="M212.471 120.676C212.4 120.721 207.485 112.97 201.497 103.372C195.509 93.7664 190.716 85.9441 190.787 85.8989C190.858 85.8537 195.774 93.5985 201.762 103.21C207.75 112.815 212.542 120.637 212.471 120.683V120.676Z" fill="#343434"/>
<path d="M212.471 120.676C212.407 120.734 206.264 113.913 198.758 105.451C191.246 96.9832 185.213 90.0717 185.277 90.0136C185.342 89.9554 191.485 96.7765 198.991 105.245C206.503 113.713 212.536 120.625 212.471 120.683V120.676Z" fill="#343434"/>
<path d="M212.471 120.676C212.42 120.741 205.224 115.05 196.4 107.958C187.577 100.865 180.471 95.0583 180.523 94.9937C180.575 94.9291 187.771 100.62 196.594 107.712C205.411 114.805 212.523 120.605 212.465 120.676H212.471Z" fill="#343434"/>
<path d="M212.471 120.676C212.426 120.754 204.384 116.342 194.501 110.826C184.618 105.31 176.641 100.775 176.68 100.698C176.725 100.62 184.767 105.032 194.65 110.548C204.533 116.064 212.51 120.599 212.465 120.676H212.471Z" fill="#343434"/>
<path d="M212.471 120.676C212.445 120.76 203.77 117.757 193.106 113.971C182.435 110.186 173.818 107.047 173.844 106.969C173.87 106.886 182.545 109.889 193.209 113.674C203.874 117.46 212.497 120.592 212.471 120.676Z" fill="#343434"/>
<path d="M212.471 120.676C212.458 120.76 203.402 119.249 192.26 117.305C181.111 115.354 172.081 113.707 172.1 113.623C172.113 113.539 181.163 115.05 192.318 116.995C203.467 118.945 212.491 120.592 212.478 120.676H212.471Z" fill="#343434"/>
<path d="M212.471 120.676C212.471 120.76 203.292 120.786 191.976 120.734C180.652 120.676 171.48 120.567 171.48 120.476C171.48 120.392 180.652 120.366 191.976 120.418C203.292 120.476 212.465 120.586 212.465 120.676H212.471Z" fill="#343434"/>
<path d="M212.471 120.676C212.484 120.76 203.441 122.324 192.279 124.158C181.111 125.999 172.048 127.42 172.029 127.33C172.016 127.246 181.053 125.682 192.228 123.848C203.396 122.007 212.458 120.586 212.471 120.676Z" fill="#343434"/>
<path d="M212.471 120.676C212.497 120.76 203.848 123.809 193.145 127.485C182.442 131.166 173.741 134.08 173.715 134.002C173.689 133.918 182.338 130.869 193.048 127.187C203.751 123.506 212.452 120.592 212.478 120.67L212.471 120.676Z" fill="#343434"/>
<path d="M212.471 120.676C212.51 120.754 204.487 125.204 194.553 130.624C184.612 136.043 176.525 140.378 176.486 140.3C176.447 140.223 184.463 135.772 194.404 130.353C204.339 124.933 212.432 120.605 212.471 120.676Z" fill="#343434"/>
<path d="M212.471 120.676C212.523 120.748 205.359 126.477 196.471 133.479C187.577 140.487 180.329 146.107 180.278 146.042C180.226 145.971 187.389 140.242 196.278 133.234C205.166 126.232 212.42 120.605 212.471 120.676Z" fill="#343434"/>
<path d="M212.471 120.676C212.536 120.734 206.432 127.588 198.842 135.979C191.246 144.376 185.038 151.132 184.974 151.074C184.909 151.016 191.013 144.169 198.609 135.772C206.199 127.381 212.407 120.625 212.471 120.683V120.676Z" fill="#343434"/>
<path d="M212.471 120.676C212.542 120.721 207.672 128.499 201.587 138.046C195.502 147.593 190.516 155.292 190.438 155.247C190.367 155.202 195.238 147.425 201.322 137.878C207.407 128.337 212.394 120.631 212.465 120.683L212.471 120.676Z" fill="#343434"/>
<path d="M212.471 120.676C212.549 120.709 209.048 129.19 204.649 139.615C200.25 150.047 196.62 158.47 196.536 158.438C196.458 158.406 199.959 149.925 204.358 139.493C208.757 129.067 212.387 120.638 212.471 120.676Z" fill="#343434"/>
<path d="M212.471 120.676C212.555 120.696 210.52 129.642 207.93 140.662C205.334 151.681 203.163 160.595 203.079 160.576C202.995 160.557 205.03 151.61 207.627 140.591C210.223 129.577 212.394 120.657 212.478 120.683L212.471 120.676Z" fill="#343434"/>
<path d="M212.471 120.676C212.555 120.676 212.045 129.842 211.334 141.14C210.617 152.437 209.972 161.59 209.888 161.584C209.804 161.584 210.307 152.418 211.024 141.12C211.741 129.829 212.387 120.676 212.471 120.676Z" fill="#343434"/>
<path d="M212.471 120.676C212.555 120.67 213.589 129.784 214.771 141.036C215.953 152.295 216.844 161.422 216.76 161.435C216.676 161.442 215.643 152.327 214.461 141.069C213.279 129.816 212.387 120.683 212.471 120.67V120.676Z" fill="#343434"/>
<path d="M212.471 120.676C212.555 120.65 215.094 129.468 218.149 140.371C221.198 151.274 223.607 160.124 223.523 160.15C223.439 160.176 220.901 151.358 217.845 140.455C214.797 129.558 212.387 120.702 212.471 120.676Z" fill="#343434"/>
<path d="M212.471 120.676C212.549 120.638 216.528 128.906 221.359 139.144C226.191 149.382 230.047 157.708 229.963 157.747C229.886 157.786 225.907 149.518 221.075 139.279C216.244 129.048 212.394 120.715 212.471 120.683V120.676Z" fill="#343434"/>
<path d="M212.471 120.676C212.542 120.625 217.852 128.111 224.324 137.393C230.803 146.675 235.99 154.239 235.919 154.291C235.848 154.343 230.545 146.856 224.066 137.574C217.594 128.292 212.4 120.728 212.471 120.676Z" fill="#343434"/>
<path d="M212.471 120.676C212.536 120.618 219.015 127.11 226.953 135.178C234.892 143.246 241.274 149.841 241.216 149.899C241.151 149.957 234.672 143.465 226.734 135.397C218.795 127.33 212.413 120.741 212.478 120.676H212.471Z" fill="#343434"/>
<path d="M212.471 120.676C212.523 120.605 220.003 125.921 229.175 132.549C238.354 139.176 245.75 144.608 245.698 144.679C245.647 144.75 238.173 139.434 228.994 132.807C219.822 126.18 212.426 120.747 212.478 120.683L212.471 120.676Z" fill="#343434"/>
<path d="M212.471 120.676C212.51 120.599 220.772 124.591 230.926 129.59C241.08 134.59 249.283 138.705 249.245 138.782C249.206 138.86 240.944 134.868 230.79 129.868C220.636 124.869 212.439 120.754 212.478 120.676H212.471Z" fill="#343434"/>
<path d="M212.471 120.676C212.497 120.592 221.308 123.144 232.153 126.374C243.005 129.603 251.777 132.29 251.751 132.374C251.725 132.458 242.914 129.907 232.063 126.677C221.217 123.447 212.445 120.76 212.465 120.676H212.471Z" fill="#343434"/>
<path d="M212.471 120.676C212.484 120.592 221.598 121.632 232.831 123.002C244.071 124.371 253.165 125.553 253.152 125.637C253.14 125.721 244.025 124.681 232.792 123.312C221.56 121.942 212.458 120.76 212.471 120.676Z" fill="#343434"/>
<path d="M212.471 120.676C212.471 120.592 221.631 120.095 232.935 119.565C244.245 119.036 253.411 118.68 253.411 118.764C253.411 118.848 244.252 119.346 232.948 119.875C221.644 120.405 212.471 120.76 212.471 120.676Z" fill="#343434"/>
<path d="M212.471 120.676C212.452 120.592 221.405 118.57 232.457 116.155C243.515 113.745 252.494 111.859 252.513 111.943C252.532 112.027 243.586 114.049 232.521 116.465C221.463 118.874 212.484 120.76 212.465 120.676H212.471Z" fill="#343434"/>
<path d="M212.471 120.676C212.439 120.599 220.927 117.104 231.423 112.88C241.926 108.649 250.459 105.29 250.491 105.368C250.524 105.445 242.042 108.94 231.539 113.17C221.043 117.395 212.504 120.76 212.471 120.676Z" fill="#343434"/>
<path d="M212.471 120.676C212.426 120.605 220.21 115.741 229.853 109.818C239.497 103.895 247.352 99.1536 247.397 99.2247C247.442 99.2957 239.659 104.16 230.015 110.083C220.371 116.006 212.516 120.747 212.471 120.676Z" fill="#343434"/>
<path d="M212.471 120.676C212.413 120.612 219.273 114.514 227.787 107.06C236.306 99.6059 243.257 93.6181 243.315 93.6826C243.373 93.7472 236.513 99.8449 227.993 107.299C219.48 114.753 212.523 120.741 212.471 120.676Z" fill="#343434"/>
<path d="M212.471 120.676C212.407 120.625 218.149 113.468 225.293 104.689C232.444 95.9111 238.296 88.8446 238.361 88.9027C238.425 88.9544 232.689 96.1114 225.532 104.89C218.382 113.662 212.529 120.728 212.465 120.676H212.471Z" fill="#343434"/>
<path d="M212.471 120.676C212.394 120.631 216.864 112.615 222.445 102.771C228.026 92.9203 232.612 84.9752 232.689 85.0205C232.767 85.0657 228.303 93.0753 222.716 102.926C217.135 112.77 212.549 120.715 212.471 120.676Z" fill="#343434"/>
<path d="M146.385 139.299C153.024 139.299 158.406 133.917 158.406 127.278C158.406 120.639 153.024 115.257 146.385 115.257C139.746 115.257 134.365 120.639 134.365 127.278C134.365 133.917 139.746 139.299 146.385 139.299Z" fill="#EEEEEE"/>
<path d="M152.76 132.93C155.77 129.397 155.345 124.093 151.811 121.084C148.278 118.075 142.974 118.499 139.965 122.033C136.955 125.566 137.38 130.87 140.914 133.879C144.447 136.889 149.751 136.464 152.76 132.93Z" fill="#E0E0E0"/>
<path d="M61.7415 120.411C61.6575 120.386 64.209 111.575 67.4387 100.73C70.6684 89.8779 73.3555 81.1061 73.4395 81.1319C73.5234 81.1577 70.972 89.9683 67.7423 100.82C64.5126 111.665 61.8255 120.437 61.7415 120.418V120.411Z" fill="#343434"/>
<path d="M61.7414 120.412C61.6575 120.399 62.7297 111.284 64.1379 100.058C65.546 88.8251 66.7604 79.7303 66.8444 79.7432C66.9283 79.7561 65.8561 88.8638 64.4479 100.097C63.0398 111.323 61.8319 120.418 61.7414 120.412Z" fill="#343434"/>
<path d="M61.7416 120.411C61.6576 120.411 61.0956 111.258 60.4949 99.9546C59.8942 88.6506 59.4743 79.4847 59.5583 79.4783C59.6423 79.4783 60.2042 88.6312 60.805 99.9352C61.4057 111.233 61.8255 120.405 61.7416 120.405V120.411Z" fill="#343434"/>
<path d="M61.7415 120.412C61.6575 120.431 59.5712 111.491 57.0908 100.452C54.6039 89.4064 52.6596 80.4408 52.7436 80.4214C52.8276 80.402 54.9075 89.3354 57.3944 100.381C59.8812 111.42 61.8255 120.386 61.7415 120.405V120.412Z" fill="#343434"/>
<path d="M61.7416 120.411C61.6641 120.444 58.1115 111.982 53.816 101.511C49.5205 91.0405 46.097 82.527 46.181 82.4947C46.2585 82.4624 49.8111 90.9242 54.1066 101.395C58.4021 111.866 61.8191 120.379 61.7416 120.411Z" fill="#343434"/>
<path d="M61.7416 120.411C61.6705 120.457 56.7549 112.705 50.7671 103.107C44.7792 93.5015 39.9864 85.6792 40.0574 85.634C40.1285 85.5888 45.0441 93.3336 51.0319 102.945C57.0198 112.55 61.8127 120.373 61.7416 120.418V120.411Z" fill="#343434"/>
<path d="M61.7414 120.411C61.6768 120.47 55.534 113.648 48.0281 105.187C40.5159 96.7183 34.4828 89.8068 34.5474 89.7487C34.612 89.6905 40.7549 96.5117 48.2607 104.98C55.7665 113.448 61.806 120.36 61.7414 120.418V120.411Z" fill="#343434"/>
<path d="M61.7416 120.411C61.6899 120.476 54.4942 114.785 45.6706 107.693C36.8471 100.6 29.7418 94.7934 29.7999 94.7288C29.8516 94.6642 37.0473 100.355 45.8709 107.447C54.6879 114.54 61.7997 120.34 61.7416 120.411Z" fill="#343434"/>
<path d="M61.7416 120.412C61.6964 120.489 53.6544 116.077 43.7716 110.561C33.8887 105.045 25.9113 100.51 25.9501 100.433C25.9953 100.355 34.0373 104.767 43.9201 110.283C53.803 115.8 61.7803 120.334 61.7351 120.412H61.7416Z" fill="#343434"/>
<path d="M61.7415 120.411C61.7156 120.495 53.0407 117.492 42.3762 113.707C31.7053 109.921 23.0885 106.782 23.1143 106.705C23.1402 106.621 31.8151 109.624 42.4796 113.409C53.144 117.195 61.7673 120.327 61.7415 120.411Z" fill="#343434"/>
<path d="M61.7416 120.411C61.7287 120.495 52.6726 118.984 41.5302 117.04C30.3812 115.089 21.351 113.442 21.3704 113.358C21.3833 113.274 30.4329 114.785 41.5883 116.73C52.7372 118.68 61.761 120.328 61.7481 120.411H61.7416Z" fill="#343434"/>
<path d="M61.7415 120.411C61.7415 120.495 52.5628 120.521 41.2459 120.47C29.9226 120.411 20.7502 120.295 20.7502 120.211C20.7502 120.127 29.9226 120.101 41.2459 120.153C52.5628 120.211 61.7351 120.321 61.7351 120.411H61.7415Z" fill="#343434"/>
<path d="M61.7416 120.412C61.7545 120.496 52.7114 122.059 41.5495 123.893C30.3812 125.734 21.3187 127.155 21.2993 127.065C21.2864 126.981 30.3231 125.418 41.4979 123.583C52.6661 121.742 61.7287 120.321 61.7416 120.412Z" fill="#343434"/>
<path d="M61.7415 120.412C61.7674 120.496 53.1182 123.544 42.415 127.22C31.7118 130.902 23.011 133.815 22.9852 133.737C22.9593 133.653 31.6085 130.604 42.3117 126.923C53.0149 123.241 61.7157 120.328 61.7415 120.405V120.412Z" fill="#343434"/>
<path d="M61.7415 120.412C61.7803 120.489 53.7577 124.94 43.8232 130.359C33.8822 135.778 25.795 140.113 25.7562 140.035C25.7175 139.958 33.7336 135.507 43.6746 130.088C53.6091 124.668 61.7028 120.34 61.7415 120.412Z" fill="#343434"/>
<path d="M61.7415 120.411C61.7932 120.482 54.6297 126.212 45.7416 133.214C36.847 140.222 29.5996 145.842 29.5479 145.777C29.4962 145.713 36.6597 139.977 45.5478 132.968C54.4359 125.966 61.6898 120.34 61.7415 120.411Z" fill="#343434"/>
<path d="M61.7415 120.411C61.8061 120.47 55.702 127.323 48.1122 135.714C40.516 144.111 34.3085 150.867 34.2439 150.809C34.1793 150.751 40.2834 143.904 47.8797 135.507C55.4695 127.116 61.677 120.36 61.7415 120.418V120.411Z" fill="#343434"/>
<path d="M61.7415 120.411C61.8126 120.457 56.9422 128.234 50.8639 137.781C44.7792 147.328 39.7925 155.027 39.7215 154.982C39.6504 154.937 44.5208 147.16 50.6055 137.613C56.6838 128.072 61.6769 120.366 61.748 120.418L61.7415 120.411Z" fill="#343434"/>
<path d="M61.7415 120.412C61.819 120.444 58.318 128.925 53.9192 139.35C49.5203 149.782 45.8837 158.205 45.8062 158.173C45.7287 158.141 49.2297 149.66 53.6285 139.228C58.0274 128.802 61.6575 120.373 61.7415 120.412Z" fill="#343434"/>
<path d="M61.7415 120.411C61.8255 120.431 59.7908 129.377 57.1941 140.397C54.5974 151.416 52.4271 160.33 52.3431 160.311C52.2591 160.292 54.2938 151.345 56.8905 140.326C59.4872 129.312 61.6575 120.392 61.7415 120.418V120.411Z" fill="#343434"/>
<path d="M61.7416 120.411C61.8255 120.411 61.3153 129.577 60.6047 140.875C59.8877 152.172 59.2418 161.325 59.1578 161.319C59.0738 161.319 59.5777 152.153 60.2947 140.855C61.0117 129.564 61.6576 120.411 61.7416 120.411Z" fill="#343434"/>
<path d="M61.7416 120.411C61.8255 120.405 62.859 129.519 64.0411 140.771C65.2232 152.03 66.1146 161.157 66.0306 161.17C65.9466 161.177 64.9131 152.063 63.7311 140.804C62.549 129.552 61.6576 120.418 61.7416 120.405V120.411Z" fill="#343434"/>
<path d="M61.7416 120.411C61.8256 120.386 64.3641 129.203 67.4194 140.106C70.4683 151.01 72.8776 159.859 72.7937 159.885C72.7097 159.911 70.1711 151.094 67.1158 140.19C64.067 129.293 61.6577 120.437 61.7416 120.411Z" fill="#343434"/>
<path d="M61.7416 120.412C61.8191 120.373 65.7981 128.641 70.6298 138.879C75.4614 149.117 79.3176 157.443 79.2337 157.482C79.1562 157.521 75.1772 149.253 70.3455 139.015C65.5139 128.783 61.6641 120.45 61.7416 120.418V120.412Z" fill="#343434"/>
<path d="M61.7414 120.411C61.8125 120.36 67.1221 127.846 73.5944 137.128C80.0732 146.41 85.2601 153.974 85.189 154.026C85.118 154.078 79.8148 146.591 73.3361 137.309C66.8637 128.027 61.6704 120.463 61.7414 120.411Z" fill="#343434"/>
<path d="M61.7415 120.412C61.806 120.353 68.2848 126.845 76.2234 134.913C84.162 142.981 90.5439 149.576 90.4858 149.634C90.4212 149.692 83.9424 143.2 76.0038 135.132C68.0652 127.065 61.6833 120.476 61.7479 120.412H61.7415Z" fill="#343434"/>
<path d="M61.7415 120.411C61.7931 120.34 69.2731 125.656 78.4454 132.284C87.6242 138.911 95.0202 144.343 94.9686 144.414C94.9169 144.486 87.4434 139.169 78.2646 132.542C69.0922 125.915 61.6962 120.482 61.7479 120.418L61.7415 120.411Z" fill="#343434"/>
<path d="M61.7416 120.412C61.7803 120.334 70.0419 124.326 80.196 129.325C90.3502 134.325 98.5536 138.44 98.5149 138.517C98.4761 138.595 90.2146 134.603 80.0604 129.603C69.9062 124.604 61.7093 120.489 61.7416 120.412Z" fill="#343434"/>
<path d="M61.7416 120.411C61.7674 120.327 70.578 122.879 81.4234 126.109C92.2751 129.338 101.047 132.025 101.021 132.109C100.995 132.193 92.1847 129.642 81.3329 126.412C70.4876 123.183 61.7158 120.495 61.7351 120.411H61.7416Z" fill="#343434"/>
<path d="M61.7415 120.411C61.7544 120.328 70.8686 121.367 82.1015 122.737C93.3408 124.106 102.436 125.288 102.429 125.372C102.416 125.456 93.302 124.416 82.0692 123.047C70.8363 121.678 61.735 120.495 61.7479 120.411H61.7415Z" fill="#343434"/>
<path d="M61.7415 120.412C61.7415 120.328 70.9009 119.83 82.2048 119.301C93.5152 118.771 102.681 118.416 102.681 118.5C102.681 118.584 93.5217 119.081 82.2177 119.611C70.9138 120.14 61.7415 120.496 61.7415 120.412Z" fill="#343434"/>
<path d="M61.7416 120.411C61.7222 120.327 70.6749 118.306 81.7269 115.89C92.7854 113.48 101.764 111.594 101.783 111.678C101.803 111.762 92.8565 113.784 81.7915 116.2C70.733 118.609 61.7545 120.495 61.7351 120.411H61.7416Z" fill="#343434"/>
<path d="M61.7415 120.411C61.7092 120.334 70.1969 116.839 80.6934 112.615C91.1964 108.384 99.7292 105.025 99.7615 105.103C99.7938 105.18 91.3126 108.675 80.8097 112.906C70.3132 117.13 61.7738 120.495 61.7415 120.411Z" fill="#343434"/>
<path d="M61.7417 120.411C61.6964 120.34 69.48 115.476 79.1239 109.553C88.7678 103.63 96.6224 98.8887 96.6676 98.9598C96.7128 99.0308 88.9292 103.895 79.2854 109.818C69.6415 115.741 61.7869 120.482 61.7417 120.411Z" fill="#343434"/>
<path d="M61.7416 120.412C61.6834 120.347 68.5433 114.249 77.0568 106.795C85.5767 99.341 92.527 93.3532 92.5852 93.4178C92.6433 93.4823 85.7834 99.58 77.2635 107.034C68.75 114.488 61.7997 120.476 61.7416 120.412Z" fill="#343434"/>
<path d="M61.7415 120.412C61.6769 120.36 67.4193 113.203 74.5699 104.425C81.7204 95.6462 87.5726 88.5797 87.6372 88.6378C87.7018 88.6895 81.9594 95.8465 74.8089 104.625C67.6583 113.397 61.8061 120.463 61.7415 120.412Z" fill="#343434"/>
<path d="M61.7415 120.411C61.664 120.366 66.1339 112.35 71.7148 102.506C77.2957 92.6554 81.8819 84.7103 81.9594 84.7556C82.0369 84.8008 77.5734 92.8104 71.9861 102.661C66.4052 112.505 61.819 120.45 61.7415 120.411Z" fill="#343434"/>
<path d="M15.1951 120.411C15.1951 146.12 36.0331 166.958 61.7414 166.958C87.4498 166.958 108.288 146.12 108.288 120.411C108.288 94.703 87.4498 73.865 61.7414 73.865C36.0331 73.865 15.1951 94.703 15.1951 120.411ZM19.1224 120.411C19.1224 96.8733 38.2034 77.7923 61.7414 77.7923C85.2795 77.7923 104.361 96.8733 104.361 120.411C104.361 143.949 85.2795 163.03 61.7414 163.03C38.2034 163.03 19.1224 143.949 19.1224 120.411Z" fill="#343434"/>
<path d="M19.1289 120.411C19.1289 143.949 38.2099 163.03 61.748 163.03C85.286 163.03 104.367 143.949 104.367 120.411C104.367 96.8733 85.286 77.7922 61.748 77.7922C38.2099 77.7922 19.1289 96.8733 19.1289 120.411ZM20.7631 120.411C20.7631 97.7776 39.1078 79.4329 61.7415 79.4329C84.3752 79.4329 102.72 97.7776 102.72 120.411C102.72 143.045 84.3752 161.39 61.7415 161.39C39.1078 161.39 20.7631 143.045 20.7631 120.411Z" fill="#E0E0E0"/>
<path d="M165.925 120.411C165.925 146.12 186.763 166.958 212.471 166.958C238.18 166.958 259.018 146.12 259.018 120.411C259.018 94.703 238.18 73.865 212.471 73.865C186.763 73.865 165.925 94.703 165.925 120.411ZM169.852 120.411C169.852 96.8733 188.933 77.7923 212.471 77.7923C236.009 77.7923 255.091 96.8733 255.091 120.411C255.091 143.949 236.009 163.03 212.471 163.03C188.933 163.03 169.852 143.949 169.852 120.411Z" fill="#343434"/>
<path d="M169.859 120.411C169.859 143.949 188.94 163.03 212.478 163.03C236.016 163.03 255.097 143.949 255.097 120.411C255.097 96.8733 236.016 77.7922 212.478 77.7922C188.94 77.7922 169.859 96.8733 169.859 120.411ZM171.499 120.411C171.499 97.7776 189.844 79.4329 212.478 79.4329C235.111 79.4329 253.456 97.7776 253.456 120.411C253.456 143.045 235.111 161.39 212.478 161.39C189.844 161.39 171.499 143.045 171.499 120.411Z" fill="#E0E0E0"/>
<path d="M193.093 116.885H190.445V124.481H193.093V116.885Z" fill="#777777"/>
<path d="M164.608 73.2185L163.349 74.5176L211.131 120.805L212.389 119.506L164.608 73.2185Z" fill="#777777"/>
<path d="M262.719 108.81C262.719 108.81 252.397 69.9314 213.821 69.9314C175.246 69.9314 161.436 100.394 161.436 124.481L164.833 123.745C164.833 123.745 162.98 73.2192 213.97 73.2192C248.702 73.2192 259.741 110.115 259.741 110.115L262.719 108.81Z" fill="#777777"/>
<path d="M133.376 125.947C133.376 125.947 135.624 115.037 144.809 113.558C154.001 112.079 190.787 113.558 190.787 113.558C190.787 113.558 194.579 113.713 194.579 118.499L170.867 119.352C168.993 119.417 167.159 119.933 165.525 120.857L158.187 125.004C158.187 125.004 155.183 113.138 143.356 116.187C136.031 118.073 134.41 126.257 134.41 126.257L133.376 125.941V125.947Z" fill="#E0E0E0"/>
<path d="M133.376 125.947C133.376 125.947 133.467 125.967 133.635 126.012C133.815 126.064 134.067 126.135 134.416 126.232L134.384 126.251C134.565 125.431 134.939 124.035 135.85 122.324C136.302 121.471 136.89 120.534 137.698 119.624C138.505 118.713 139.513 117.808 140.785 117.098C142.064 116.407 143.588 115.948 145.229 115.709C146.056 115.599 146.915 115.541 147.8 115.599C148.685 115.645 149.589 115.8 150.481 116.097C152.27 116.665 153.962 117.808 155.299 119.365C156.63 120.928 157.683 122.827 158.316 124.965L158.103 124.875C160.428 123.557 162.863 122.181 165.389 120.747C166.661 120.018 168.108 119.514 169.613 119.301C170.369 119.184 171.138 119.184 171.9 119.152C172.662 119.126 173.431 119.094 174.212 119.068C180.42 118.842 186.983 118.603 193.772 118.358C194.043 118.345 194.314 118.338 194.566 118.332L194.405 118.5C194.405 117.311 194.146 116.084 193.429 115.167C192.719 114.249 191.575 113.707 190.426 113.707C188.042 113.623 185.697 113.545 183.391 113.461C178.779 113.319 174.335 113.209 170.098 113.132C165.86 113.054 161.843 113.022 158.077 113.048C154.318 113.067 150.81 113.132 147.626 113.371C146.825 113.41 146.056 113.519 145.307 113.603C144.926 113.629 144.564 113.713 144.209 113.804C143.853 113.888 143.498 113.959 143.149 114.056C142.813 114.185 142.49 114.307 142.161 114.43C141.999 114.495 141.838 114.546 141.683 114.618C141.534 114.701 141.386 114.779 141.237 114.863C140.94 115.024 140.649 115.186 140.365 115.341C140.1 115.528 139.842 115.716 139.584 115.903C137.542 117.408 136.309 119.281 135.43 120.812C134.565 122.369 134.08 123.68 133.783 124.565C133.628 125.011 133.538 125.353 133.467 125.586C133.402 125.818 133.37 125.928 133.363 125.934C133.363 125.934 133.376 125.812 133.434 125.573C133.492 125.34 133.576 124.991 133.719 124.539C133.996 123.641 134.461 122.324 135.314 120.741C136.18 119.191 137.407 117.285 139.467 115.741C139.726 115.554 139.991 115.36 140.255 115.167C140.546 115.005 140.837 114.844 141.134 114.676C141.282 114.592 141.438 114.508 141.586 114.424C141.741 114.353 141.909 114.295 142.071 114.23C142.4 114.101 142.736 113.972 143.072 113.842C143.421 113.746 143.782 113.668 144.144 113.584C144.506 113.494 144.874 113.41 145.255 113.377C146.011 113.287 146.792 113.171 147.593 113.132C150.791 112.88 154.298 112.802 158.064 112.764C161.83 112.731 165.854 112.751 170.091 112.822C174.329 112.886 178.779 112.99 183.391 113.132C185.697 113.209 188.042 113.287 190.426 113.371C191.659 113.371 192.906 113.959 193.681 114.953C194.469 115.955 194.721 117.259 194.727 118.493V118.655H194.566C194.314 118.661 194.043 118.674 193.772 118.68C186.983 118.919 180.42 119.158 174.212 119.378C173.437 119.404 172.669 119.43 171.9 119.462C171.131 119.494 170.382 119.494 169.646 119.604C168.173 119.811 166.771 120.295 165.525 121.006C162.992 122.433 160.557 123.803 158.232 125.114L158.077 125.204L158.025 125.024C157.418 122.944 156.378 121.058 155.086 119.527C153.775 118.002 152.134 116.878 150.39 116.316C149.525 116.026 148.64 115.871 147.768 115.819C146.902 115.754 146.05 115.806 145.242 115.909C143.614 116.135 142.122 116.575 140.856 117.246C139.603 117.938 138.595 118.816 137.794 119.708C136.987 120.599 136.393 121.523 135.934 122.362C135.01 124.048 134.616 125.431 134.41 126.238V126.27L134.377 126.264C134.029 126.148 133.77 126.064 133.589 126.005C133.421 125.947 133.35 125.921 133.35 125.921L133.376 125.947Z" fill="#343434"/>
<path d="M155.125 102.118V97.7712C146.444 97.7712 140.469 95.6331 136.981 93.8374C133.221 91.8996 131.471 89.936 131.451 89.9166L131.413 89.8714L95.5888 50.9019L92.3914 53.8409L128.196 92.791C128.842 93.5209 136.813 102.118 155.125 102.118Z" fill="#777777"/>
<path d="M163.835 67.7648L146.383 128.869L150.563 130.063L168.015 68.9587L163.835 67.7648Z" fill="#777777"/>
<path d="M147.645 131.774L212.781 122.563L212.168 118.261L149.305 127.155L91.1316 63.5237L87.9277 66.4562L147.645 131.774Z" fill="#777777"/>
<path d="M99.4383 28.3005L102.836 29.1467L96.3055 51.69L93.3213 50.2883L99.4383 28.3005Z" fill="#E0E0E0"/>
<path d="M110.736 137.219C110.736 137.219 118.674 112.764 104.36 92.3842C90.0465 72.0112 70.6102 70.3835 62.9106 69.3435L62.7039 72.599C62.7039 72.599 83.122 73.9491 94.9685 85.6276C106.815 97.3062 113.694 115.412 108.817 135.016L110.736 137.212V137.219Z" fill="#777777"/>
<path d="M63.0915 122.259C72.167 115.108 80.0022 98.4301 80.3252 97.7195L80.4027 97.5258L97.0162 50.4432L92.921 48.9963L76.3462 95.9755C75.7196 97.2997 68.3365 112.589 60.3979 118.842L63.0851 122.252L63.0915 122.259Z" fill="#777777"/>
<path d="M172.397 80.5764L185.865 65.9136H244.181C244.755 65.9136 245.221 65.5067 245.221 65.0093C245.221 64.5119 244.755 64.105 244.181 64.105H184.864L170.892 79.3169L172.391 80.5829L172.397 80.5764Z" fill="#777777"/>
<path d="M221.72 64.8522L211.941 120.251L213.722 120.565L223.501 65.1666L221.72 64.8522Z" fill="#777777"/>
<path d="M203.079 120.805C203.079 116.361 206.684 112.757 211.128 112.757C215.572 112.757 219.176 116.361 219.176 120.805C219.176 125.25 215.572 128.854 211.128 128.854C206.684 128.854 203.079 125.25 203.079 120.805Z" fill="#343434"/>
<path d="M53.6995 120.805C53.6995 116.361 57.3038 112.757 61.7479 112.757C66.1919 112.757 69.7963 116.361 69.7963 120.805C69.7963 125.25 66.1919 128.854 61.7479 128.854C57.3038 128.854 53.6995 125.25 53.6995 120.805Z" fill="#343434"/>
<path d="M136.328 134.067C136.38 134.015 137.052 135.21 138.951 136.638C139.894 137.348 141.166 138.065 142.742 138.627C144.312 139.202 146.179 139.622 148.265 139.925C150.358 140.21 152.645 140.552 155.125 140.546C157.599 140.565 160.247 140.358 163.018 140.035C168.56 139.389 174.632 138.44 180.969 137.245C187.306 136.056 193.313 134.764 198.771 133.563C201.497 132.956 204.094 132.381 206.516 131.845C208.932 131.296 211.16 130.643 213.033 129.674C213.964 129.19 214.81 128.634 215.527 128.021C216.244 127.407 216.831 126.716 217.303 126.025C218.253 124.636 218.705 123.209 218.84 122.033C218.982 120.851 218.815 119.921 218.627 119.326C218.446 118.726 218.285 118.435 218.311 118.422C218.311 118.422 218.356 118.493 218.421 118.642C218.485 118.79 218.608 119.003 218.685 119.307C218.892 119.901 219.086 120.844 218.957 122.046C218.84 123.241 218.395 124.701 217.439 126.122C216.967 126.832 216.373 127.536 215.643 128.169C214.913 128.802 214.06 129.371 213.117 129.868C211.225 130.863 208.977 131.528 206.555 132.097C204.126 132.646 201.536 133.227 198.81 133.841C193.352 135.055 187.344 136.36 181.001 137.548C174.658 138.743 168.586 139.68 163.031 140.313C160.254 140.629 157.599 140.83 155.106 140.797C152.606 140.791 150.306 140.429 148.213 140.132C146.121 139.816 144.241 139.383 142.658 138.782C141.076 138.194 139.797 137.458 138.854 136.722C137.911 135.992 137.271 135.307 136.877 134.823C136.696 134.584 136.548 134.396 136.444 134.254C136.347 134.125 136.302 134.06 136.309 134.054L136.328 134.067Z" fill="#343434"/>
<path d="M34.5152 133.124C33.1393 133.821 31.4599 133.266 30.7623 131.89L27.1644 124.772C26.4668 123.396 27.0223 121.716 28.3981 121.019C29.774 120.321 31.4534 120.877 32.151 122.252L35.7489 129.371C36.4465 130.746 35.891 132.426 34.5152 133.124Z" fill="#8FC9E3"/>
<path d="M242.159 129.545C240.647 129.248 239.659 127.782 239.956 126.264L241.493 118.435C241.791 116.923 243.257 115.935 244.775 116.232C246.286 116.529 247.275 117.996 246.977 119.514L245.44 127.342C245.143 128.854 243.677 129.842 242.159 129.545Z" fill="#8FC9E3"/>
<path d="M186.996 48.034C186.492 49.5907 184.244 56.1406 180.95 56.3796C177.655 56.6186 154.886 53.0788 151.469 52.2068C149.299 51.6577 148.039 48.034 153.213 48.034C160.641 48.034 188.132 44.5589 186.996 48.034Z" fill="#777777"/>
<path d="M136.884 110.703L147.148 131.231H150.054L140.288 109.934L136.884 110.703Z" fill="#343434"/>
<path d="M144.428 105.923H129.772V110.761H144.428V105.923Z" fill="#E0E0E0"/>
<path d="M295.119 166.958C295.119 167.048 229.246 167.126 148.006 167.126C66.7667 167.126 0.880859 167.048 0.880859 166.958C0.880859 166.868 66.7408 166.79 148.006 166.79C229.272 166.79 295.119 166.868 295.119 166.958Z" fill="#343434"/>
<path d="M151.658 4.0232C151.684 3.48707 151.51 2.9574 151.219 2.50524C150.935 2.06601 150.534 1.6849 150.05 1.49758C149.533 1.29734 148.932 1.31672 148.429 1.55571C148.131 1.69782 147.867 1.91744 147.666 2.18227C147.557 1.90452 147.389 1.64614 147.169 1.43944C146.769 1.05834 146.2 0.84518 145.645 0.877477C145.121 0.903315 144.624 1.13585 144.217 1.47174C143.804 1.80763 143.468 2.25979 143.326 2.77654C143.145 3.42248 143.158 4.16531 143.41 4.78541C143.675 5.44427 144.178 6.01915 144.721 6.47777C145.632 7.24644 146.833 8.21535 146.833 8.21535C146.833 8.21535 148.086 7.55649 149.191 7.11079C149.85 6.84595 150.509 6.45839 150.961 5.9158C151.394 5.40551 151.632 4.70144 151.665 4.03612L151.658 4.0232Z" fill="#8FC9E3"/>
<path d="M154.436 17.5749C154.475 16.69 154.184 15.8115 153.706 15.0622C153.241 14.3323 152.576 13.7057 151.768 13.3892C150.909 13.0533 149.914 13.0856 149.081 13.4797C148.584 13.7122 148.151 14.0739 147.822 14.5132C147.641 14.0481 147.363 13.6218 147.001 13.2794C146.336 12.6464 145.399 12.2976 144.476 12.3493C143.61 12.3945 142.783 12.782 142.111 13.3311C141.427 13.8931 140.871 14.6359 140.632 15.4885C140.335 16.5543 140.354 17.7816 140.768 18.8087C141.207 19.8938 142.04 20.8498 142.932 21.6056C144.437 22.8781 146.426 24.4865 146.426 24.4865C146.426 24.4865 148.506 23.3948 150.328 22.6585C151.413 22.2192 152.505 21.5733 153.26 20.6754C153.977 19.8292 154.378 18.6666 154.429 17.562L154.436 17.5749Z" fill="#8FC9E3"/>
<path d="M160.876 10.8507C160.889 10.5536 160.792 10.2565 160.63 10.0046C160.475 9.75909 160.249 9.54593 159.978 9.44258C159.687 9.32631 159.351 9.33923 159.074 9.47488C158.906 9.55239 158.764 9.67512 158.647 9.82369C158.589 9.66866 158.492 9.52655 158.37 9.41029C158.144 9.19713 157.827 9.08086 157.523 9.10024C157.233 9.11315 156.955 9.2488 156.729 9.42966C156.496 9.61699 156.309 9.8689 156.232 10.1531C156.128 10.5148 156.135 10.9218 156.277 11.2706C156.425 11.6388 156.703 11.9553 157.007 12.2137C157.511 12.64 158.182 13.1826 158.182 13.1826C158.182 13.1826 158.88 12.8144 159.494 12.5689C159.862 12.4204 160.223 12.2072 160.482 11.9036C160.721 11.6194 160.857 11.2318 160.876 10.8572V10.8507Z" fill="#8FC9E3"/>
</svg>
